<?xml version="1.0" encoding="UTF-8" standalone="no"?> <!-- Created with Vectornator for iOS (http://vectornator.io/) --><!DOCTYPE svg PUBLIC "-//W3C//DTD SVG 1.1//EN" "http://www.w3.org/Graphics/SVG/1.1/DTD/svg11.dtd">
<svg height="100%" style="fill-rule:evenodd;clip-rule:evenodd;stroke-linecap:round;stroke-linejoin:round;" xmlns:xlink="http://www.w3.org/1999/xlink" xmlns="http://www.w3.org/2000/svg" xml:space="preserve" width="100%" xmlns:vectornator="http://vectornator.io" version="1.1" viewBox="0 0 4096 2048">
<metadata>
<vectornator:setting key="DimensionsVisible" value="0"/>
<vectornator:setting key="Units" value="Points"/>
<vectornator:setting key="GuidesVisible" value="1"/>
<vectornator:setting key="RulersVisible" value="1"/>
<vectornator:setting key="SnapToGuides" value="1"/>
<vectornator:setting key="DynamicGuides" value="1"/>
</metadata>
<g id="bionic.js" vectornator:layerName="bionic.js">
<path d="M778.513+944.021C778.513+939.488+776.977+935.301+774.048+931.839C770.767+927.961+766.236+925.858+761.158+925.858C756.101+925.858+751.553+927.829+748.134+931.533C744.919+935.015+743.197+939.323+743.197+944.021C743.197+948.322+744.629+952.345+747.314+955.798C750.581+959.999+755.355+962.184+760.754+962.184C766.249+962.184+771.098+960.038+774.396+955.798C777.081+952.345+778.513+948.322+778.513+944.021Z" opacity="1" fill="#77216f"/>
<path d="M775.281+1064.59L775.281+974.719L775.281+965.239L765.803+965.239L755.907+965.239L746.428+965.239L746.428+974.719L746.428+1057.32C746.428+1063.97+746.266+1069.47+745.948+1073.79C745.638+1078.01+745.214+1081.44+744.693+1084.04C744.265+1086.18+743.728+1087.77+743.164+1088.79C742.435+1090.11+741.65+1091.22+740.815+1092.14C739.636+1093.38+737.848+1094.48+735.44+1095.28C732.529+1096.25+729.103+1096.81+725.148+1096.92L714.71+1097.21L716.005+1107.57L717.015+1115.65L718.053+1123.95L726.421+1123.95C728.649+1123.95+731.159+1123.75+733.986+1123.36C737.003+1122.94+740.092+1122.2+743.253+1121.14C746.371+1120.1+749.437+1118.79+752.445+1117.21C755.933+1115.37+759.006+1113.04+761.625+1110.24C767.336+1104.19+771.152+1097.03+772.938+1088.95C774.51+1081.84+775.281+1073.72+775.281+1064.59Z" opacity="1" fill="#77216f"/>
<path d="M865.152+1046.21C865.152+1036.49+862.024+1028.26+855.707+1022.14C850.213+1016.81+842.419+1012.5+832.336+1008.99C828.841+1007.82+825.911+1006.71+823.435+1005.62C821.325+1004.7+819.61+1003.72+818.285+1002.71C817.467+1002.09+816.936+1001.46+816.591+1000.77C816.272+1000.13+816.077+999.225+816.077+997.943C816.077+995.766+816.78+994.098+818.45+992.428C819.922+990.956+822.593+990.054+826.996+990.054C831.43+990.054+834.741+990.614+836.894+991.566C839.941+992.913+842.073+994.007+843.145+994.722L852.263+1000.8L856.965+990.902L860.802+982.824L864.32+975.418L857.498+970.87C853.843+968.433+849.559+966.502+844.664+965.033C839.715+963.548+834.424+962.816+828.813+962.816C822.486+962.816+816.762+963.735+811.667+965.634C806.537+967.548+802.106+970.233+798.454+973.703C794.818+977.156+792.036+981.144+790.174+985.614C788.351+989.988+787.425+994.525+787.425+999.155C787.425+1015.83+799.239+1027.64+820.244+1034.43C826.893+1036.53+831.555+1038.81+834.231+1041.05C835.763+1042.34+836.501+1044.06+836.501+1047.02C836.501+1049.36+835.636+1051.3+833.539+1053.33C831.657+1055.14+827.785+1056.32+821.543+1056.32C817.752+1056.32+814.313+1055.76+811.181+1054.65C807.647+1053.39+804.718+1052.01+802.397+1050.53L792.988+1044.55L788.595+1054.8L784.96+1063.28L781.683+1070.93L788.84+1075.17C793.226+1077.77+798.144+1079.81+803.577+1081.3C809.054+1082.81+814.781+1083.56+820.735+1083.56C827.214+1083.56+833.119+1082.71+838.433+1080.97C843.82+1079.2+848.531+1076.69+852.505+1073.43C856.647+1070.02+859.838+1065.89+861.992+1061.11C864.098+1056.44+865.152+1051.45+865.152+1046.21Z" opacity="1" fill="#77216f"/>
<path d="M1122.27+915.812L1161.68+915.813C1168.86+950.804+1199.85+977.145+1236.95+977.145C1279.37+977.145+1313.79+942.721+1313.79+900.305C1313.79+857.889+1279.37+823.465+1236.95+823.465C1199.75+823.465+1168.69+849.947+1161.62+885.077L1122.19+885.077L1122.19+885.077C1079.82+885.12+1051.77+919.528+1051.77+961.917L1051.77+970.156L1051.74+970.156C1051.74+995.667+1031.15+1016.26+1005.64+1016.26L948.218+1016.26C942.27+940.816+883.387+880.259+808.699+871.723L808.699+817.128C808.699+799.809+802.961+783.824+793.282+770.969L915.803+770.969L915.803+771.03L992.643+771.03C1034.26+771.03+1068.19+737.89+1069.45+696.577C1104.53+689.465+1130.96+658.434+1130.96+621.268C1130.96+578.853+1096.53+544.426+1054.12+544.426C1011.7+544.426+977.276+578.853+977.276+621.268C977.276+658.4+1003.66+689.408+1038.69+696.557C1037.46+720.963+1017.36+740.295+992.643+740.295L939.08+740.295L939.08+740.233L723.71+740.233L723.71+740.224L646.87+740.224C621.358+740.224+600.765+719.63+600.765+694.119L600.765+653.163C635.536+645.811+661.629+614.946+661.629+577.99C661.629+535.551+627.227+501.143+584.789+501.143C542.352+501.143+507.949+535.551+507.949+577.99C507.949+615.375+534.654+646.527+570.03+653.41L570.03+694.119C570.03+736.535+604.454+770.959+646.87+770.959L655.019+770.959L655.019+770.969L655.019+771.024L731.859+771.024C757.37+771.024+777.963+791.617+777.963+817.128L777.963+871.185C700.647+877.269+638.961+938.947+632.867+1016.26L579.035+1016.26C553.524+1016.26+532.931+995.667+532.931+970.156L532.931+893.316L532.904+893.316L532.904+816.748C532.904+774.332+498.48+739.908+456.064+739.908L418.814+739.908C411.678+704.855+380.678+678.477+343.519+678.477C301.081+678.477+266.678+712.879+266.678+755.317C266.678+797.755+301.081+832.157+343.519+832.157C380.708+832.157+411.726+805.738+418.83+770.644L456.064+770.644C481.575+770.644+502.168+791.237+502.168+816.748L502.168+893.588L502.195+893.588L502.195+970.156C502.195+987.449+507.917+1003.41+517.571+1016.26L490.087+1016.26L458.795+1016.26C416.379+1016.26+381.955+1050.68+381.955+1093.1L381.955+1144.93C346.915+1152.07+320.525+1183.08+320.525+1220.22C320.525+1262.63+354.949+1297.06+397.365+1297.06C439.781+1297.06+474.205+1262.63+474.205+1220.22C474.205+1183.05+447.772+1152.02+412.691+1144.91L412.691+1093.1C412.691+1067.59+433.284+1047+458.795+1047L530.678+1047L581.055+1047L633.4+1047C641.927+1121.7+702.5+1180.6+777.963+1186.54L777.963+1255.68C777.963+1281.2+757.37+1301.79+731.859+1301.79L677.315+1301.79C670.416+1266.43+639.273+1239.75+601.899+1239.75C559.461+1239.75+525.058+1274.15+525.058+1316.59C525.058+1359.03+559.461+1393.43+601.899+1393.43C638.873+1393.43+669.747+1367.31+677.085+1332.52L731.859+1332.52C749.153+1332.52+765.118+1326.8+777.963+1317.15L777.963+1331.71L777.963+1408.55C777.963+1450.97+812.388+1485.39+854.803+1485.39L931.644+1485.39L931.644+1485.38L1000.87+1485.38C1007.99+1520.44+1039.02+1546.86+1076.17+1546.86C1118.59+1546.86+1153.01+1512.43+1153.01+1470.02C1153.01+1427.6+1118.59+1393.18+1076.17+1393.18C1039.02+1393.18+1007.99+1419.59+1000.87+1454.65L912.186+1454.65L912.186+1454.66L854.803+1454.66C829.292+1454.66+808.699+1434.06+808.699+1408.55L808.699+1386.69L808.699+1233.01L808.699+1186C881.553+1177.68+939.369+1119.85+947.684+1047L1005.64+1047C1022.94+1047+1038.92+1041.27+1051.77+1031.6L1051.77+1096.21L1051.77+1173.05C1051.77+1215.47+1086.19+1249.89+1128.61+1249.89L1130.93+1249.89C1138.05+1284.97+1169.06+1311.37+1206.23+1311.37C1248.67+1311.37+1283.07+1276.96+1283.07+1234.53C1283.07+1192.09+1248.67+1157.69+1206.23+1157.69C1169.06+1157.69+1138.05+1184.08+1130.93+1219.16L1128.61+1219.16C1103.1+1219.16+1082.51+1198.56+1082.51+1173.05L1082.51+1126.66L1082.51+1038.76L1082.51+961.917C1082.51+936.407+1096.76+915.814+1122.27+915.812ZM918.014+1028.86C918.014+1099.26+860.943+1156.33+790.542+1156.33C720.142+1156.33+663.071+1099.26+663.071+1028.86C663.071+958.462+720.142+901.391+790.542+901.391C860.943+901.391+918.014+958.462+918.014+1028.86ZM397.365+1266.32C371.853+1266.32+351.26+1245.73+351.26+1220.22C351.26+1194.71+371.853+1174.11+397.365+1174.11C422.875+1174.11+443.469+1194.71+443.469+1220.22C443.469+1245.73+422.875+1266.32+397.365+1266.32ZM1054.12+667.372C1028.61+667.372+1008.01+646.779+1008.01+621.268C1008.01+595.758+1028.61+575.165+1054.12+575.165C1079.63+575.165+1100.22+595.758+1100.22+621.268C1100.22+646.779+1079.63+667.372+1054.12+667.372ZM1076.17+1516.12C1050.66+1516.12+1030.07+1495.53+1030.07+1470.02C1030.07+1444.51+1050.66+1423.91+1076.17+1423.91C1101.68+1423.91+1122.27+1444.51+1122.27+1470.02C1122.27+1495.53+1101.68+1516.12+1076.17+1516.12ZM1236.95+946.409C1211.44+946.409+1190.85+925.816+1190.85+900.305C1190.85+874.794+1211.44+854.2+1236.95+854.2C1262.46+854.2+1283.05+874.794+1283.05+900.305C1283.05+925.816+1262.46+946.409+1236.95+946.409Z" opacity="1" fill="#77216f"/>
<path d="M1977.17+1027.15C1977.17+1006.16+1973.71+986.322+1966.78+967.642C1959.85+948.961+1950.09+932.588+1937.5+918.526C1924.9+904.462+1909.69+893.337+1891.85+885.151C1874+876.965+1853.96+872.872+1831.71+872.872C1800.22+872.872+1774.09+879.484+1753.31+892.708C1732.53+905.931+1716.69+922.618+1705.77+942.769L1704.51+942.769L1704.51+731.82L1673.65+731.82L1673.65+1109.64C1673.65+1121.81+1673.44+1133.99+1673.03+1146.16C1672.61+1158.34+1671.97+1170.51+1671.14+1182.68L1699.47+1182.68L1701.36+1124.12L1702.62+1124.12C1717.31+1148.05+1735.05+1165.05+1755.83+1175.13C1776.61+1185.2+1800.22+1190.24+1826.67+1190.24C1845.56+1190.24+1863.93+1186.78+1881.77+1179.85C1899.61+1172.92+1915.67+1162.64+1929.94+1148.99C1944.22+1135.35+1955.65+1118.35+1964.26+1097.99C1972.87+1077.63+1977.17+1054.02+1977.17+1027.15ZM1946.31+1028.41C1946.31+1048.98+1943.38+1067.66+1937.5+1084.45C1931.62+1101.24+1923.33+1115.62+1912.63+1127.59C1901.92+1139.55+1888.91+1148.79+1873.58+1155.29C1858.26+1161.8+1840.94+1165.05+1821.63+1165.05C1806.94+1165.05+1793.4+1162.85+1781.02+1158.44C1768.64+1154.03+1757.51+1148.26+1747.64+1141.12C1737.77+1133.99+1729.38+1125.59+1722.45+1115.94C1715.53+1106.28+1710.6+1096.21+1707.66+1085.71C1705.56+1077.31+1704.51+1069.55+1704.51+1062.41L1704.51+1010.15C1704.51+1004.27+1705.04+999.127+1706.09+994.719C1707.13+990.311+1708.29+986.218+1709.55+982.44C1713.75+968.586+1719.84+956.307+1727.81+945.603C1735.78+934.897+1744.91+926.081+1755.2+919.155C1765.49+912.228+1776.61+906.981+1788.58+903.412C1800.54+899.844+1812.82+898.06+1825.41+898.06C1844.3+898.06+1861.2+901.524+1876.1+908.45C1891.01+915.377+1903.7+924.822+1914.2+936.787C1924.69+948.75+1932.67+962.604+1938.13+978.347C1943.59+994.089+1946.31+1010.78+1946.31+1028.41Z" opacity="1" fill="#77216f"/>
<path d="M2100.59+784.714C2100.59+777.578+2098.18+771.28+2093.35+765.823C2088.52+760.365+2082.54+757.637+2075.4+757.637C2068.27+757.637+2062.18+760.365+2057.14+765.823C2052.1+771.28+2049.58+777.578+2049.58+784.714C2049.58+791.85+2051.89+798.148+2056.51+803.605C2061.13+809.063+2067.22+811.792+2074.77+811.792C2082.75+811.792+2089.05+809.063+2093.66+803.605C2098.28+798.148+2100.59+791.85+2100.59+784.714ZM2090.52+1182.68L2090.52+880.428L2059.66+880.428L2059.66+1182.68L2090.52+1182.68Z" opacity="1" fill="#77216f"/>
<path d="M2491+1027.78C2491+1006.37+2487.33+986.218+2479.98+967.327C2472.64+948.436+2462.14+931.959+2448.5+917.895C2434.86+903.832+2418.27+892.812+2398.75+884.836C2379.23+876.86+2357.3+872.872+2332.95+872.872C2311.96+872.872+2291.81+876.545+2272.5+883.892C2253.19+891.238+2236.19+901.943+2221.49+916.006C2206.8+930.069+2195.05+947.071+2186.23+967.012C2177.41+986.953+2173.01+1009.52+2173.01+1034.7C2173.01+1056.95+2176.89+1077.63+2184.66+1096.73C2192.42+1115.83+2203.23+1132.31+2217.09+1146.16C2230.94+1160.01+2247.42+1170.82+2266.52+1178.59C2285.62+1186.36+2306.5+1190.24+2329.17+1190.24C2347.64+1190.24+2366.43+1187.09+2385.53+1180.8C2404.63+1174.5+2422.05+1164.74+2437.79+1151.51C2453.54+1138.29+2466.34+1121.5+2476.21+1101.14C2486.07+1080.78+2491+1056.32+2491+1027.78ZM2459.52+1029.67C2459.52+1051.5+2455.85+1070.81+2448.5+1087.6C2441.15+1104.39+2431.5+1118.56+2419.53+1130.1C2407.57+1141.65+2393.72+1150.36+2377.97+1156.24C2362.23+1162.11+2345.96+1165.05+2329.17+1165.05C2312.8+1165.05+2297.06+1162.11+2281.94+1156.24C2266.83+1150.36+2253.5+1141.75+2241.96+1130.42C2230.41+1119.08+2221.07+1105.23+2213.94+1088.86C2206.8+1072.49+2203.23+1053.81+2203.23+1032.82C2203.23+1015.18+2205.96+998.287+2211.42+982.125C2216.87+965.963+2224.96+951.584+2235.66+938.99C2246.37+926.396+2259.8+916.426+2275.96+909.079C2292.12+901.733+2310.91+898.06+2332.32+898.06C2354.57+898.06+2373.67+902.258+2389.62+910.654C2405.57+919.05+2418.8+929.65+2429.29+942.454C2439.79+955.257+2447.45+969.426+2452.28+984.958C2457.11+1000.49+2459.52+1015.39+2459.52+1029.67Z" opacity="1" fill="#77216f"/>
<path d="M2856.86+1182.68C2856.44+1181.84+2854.86+1178.28+2852.14+1171.98C2849.41+1165.68+2846.36+1157.5+2843.01+1147.42C2839.65+1137.35+2837.97+1128.32+2837.97+1120.34L2837.97+1010.78C2837.97+989.786+2835.66+971.839+2831.04+956.937C2826.42+942.034+2820.55+929.44+2813.41+919.155C2806.27+908.87+2798.3+900.683+2789.48+894.596C2780.67+888.509+2771.85+883.892+2763.03+880.743C2754.22+877.594+2746.03+875.496+2738.48+874.447C2730.92+873.397+2724.83+872.872+2720.21+872.872C2706.36+872.872+2693.35+874.656+2681.17+878.224C2669+881.793+2657.98+886.725+2648.11+893.022C2638.25+899.319+2629.54+906.561+2621.98+914.747C2614.43+922.933+2608.34+931.644+2603.72+940.88L2602.46+940.88L2599.94+880.428L2570.98+880.428C2571.82+892.602+2572.45+904.777+2572.87+916.951C2573.28+929.125+2573.49+941.299+2573.49+953.473L2573.49+1182.68L2604.35+1182.68L2604.35+998.182C2604.35+993.564+2604.87+988.736+2605.92+983.699C2606.97+978.661+2608.13+974.463+2609.39+971.105C2612.75+961.45+2617.78+952.319+2624.5+943.713C2631.22+935.108+2638.98+927.446+2647.8+920.729C2656.61+914.012+2666.48+908.764+2677.4+904.987C2688.31+901.209+2699.85+899.319+2712.03+899.319C2729.24+899.319+2743.93+902.363+2756.11+908.45C2768.28+914.537+2778.15+922.723+2785.7+933.008C2793.26+943.293+2798.72+955.152+2802.08+968.586C2805.43+982.02+2807.11+996.083+2807.11+1010.78L2807.11+1120.34C2807.11+1134.2+2808.79+1147.11+2812.15+1159.07C2815.51+1171.03+2818.55+1179.85+2821.28+1185.52C2824.01+1191.19+2825.58+1194.44+2826+1195.28L2856.86+1182.68Z" opacity="1" fill="#77216f"/>
<path d="M2986.58+784.714C2986.58+777.578+2984.16+771.28+2979.34+765.823C2974.51+760.365+2968.53+757.637+2961.39+757.637C2954.25+757.637+2948.17+760.365+2943.13+765.823C2938.09+771.28+2935.57+777.578+2935.57+784.714C2935.57+791.85+2937.88+798.148+2942.5+803.605C2947.12+809.063+2953.2+811.792+2960.76+811.792C2968.74+811.792+2975.03+809.063+2979.65+803.605C2984.27+798.148+2986.58+791.85+2986.58+784.714ZM2976.5+1182.68L2976.5+880.428L2945.65+880.428L2945.65+1182.68L2976.5+1182.68Z" opacity="1" fill="#77216f"/>
<path d="M3322.84+894.282C3316.54+889.664+3305.31+884.941+3289.15+880.114C3272.99+875.286+3253.57+872.872+3230.9+872.872C3206.55+872.872+3183.88+876.65+3162.89+884.207C3141.9+891.763+3123.75+902.573+3108.42+916.636C3093.1+930.7+3081.03+947.806+3072.22+967.957C3063.4+988.107+3058.99+1010.78+3058.99+1035.96C3058.99+1057.79+3062.77+1078.15+3070.33+1097.05C3077.88+1115.94+3088.69+1132.31+3102.76+1146.16C3116.82+1160.01+3133.72+1170.82+3153.45+1178.59C3173.18+1186.36+3195.01+1190.24+3218.94+1190.24C3244.96+1190.24+3266.69+1187.41+3284.11+1181.74C3301.53+1176.07+3313.6+1171.56+3320.32+1168.2L3311.5+1143.64C3302.69+1147.42+3291.25+1151.72+3277.18+1156.55C3263.12+1161.38+3245.17+1163.79+3223.34+1163.79C3204.03+1163.79+3186.3+1160.64+3170.13+1154.35C3153.97+1148.05+3139.91+1139.13+3127.94+1127.59C3115.98+1116.04+3106.64+1102.19+3099.92+1086.02C3093.21+1069.86+3089.85+1051.92+3089.85+1032.19C3089.85+1013.72+3092.89+996.398+3098.98+980.235C3105.07+964.073+3113.88+950.01+3125.43+938.046C3136.97+926.081+3151.35+916.636+3168.56+909.71C3185.77+902.783+3205.71+899.319+3228.38+899.319C3248.11+899.319+3264.69+901.418+3278.13+905.617C3291.56+909.814+3302.69+914.432+3311.5+919.47L3322.84+894.282Z" opacity="1" fill="#77216f"/>
<path d="M3416.03+1161.27C3416.03+1152.88+3413.62+1145.85+3408.79+1140.18C3403.96+1134.51+3397.56+1131.68+3389.58+1131.68C3381.61+1131.68+3375.1+1134.51+3370.06+1140.18C3365.03+1145.85+3362.51+1152.88+3362.51+1161.27C3362.09+1168.83+3364.4+1175.55+3369.43+1181.42C3374.47+1187.3+3380.98+1190.24+3388.96+1190.24C3397.35+1190.24+3403.96+1187.3+3408.79+1181.42C3413.62+1175.55+3416.03+1168.83+3416.03+1161.27Z" opacity="1" fill="#77216f"/>
<path d="M3555.2+784.714C3555.2+777.578+3552.89+771.28+3548.27+765.823C3543.65+760.365+3537.77+757.637+3530.64+757.637C3523.08+757.637+3516.78+760.365+3511.75+765.823C3506.71+771.28+3504.19+777.578+3504.19+784.714C3504.19+791.431+3506.39+797.623+3510.8+803.29C3515.21+808.958+3521.4+811.792+3529.38+811.792C3537.77+811.792+3544.18+808.958+3548.58+803.29C3552.99+797.623+3555.2+791.431+3555.2+784.714ZM3545.12+1160.64L3545.12+880.428L3514.27+880.428L3514.27+1137.98C3514.27+1159.39+3513.74+1177.23+3512.69+1191.5C3511.64+1205.77+3510.17+1217.63+3508.28+1227.08C3506.39+1236.52+3503.77+1244.29+3500.41+1250.38C3497.05+1256.46+3493.28+1261.82+3489.08+1266.43C3481.52+1274.41+3471.76+1280.39+3459.8+1284.38C3447.83+1288.37+3434.29+1290.57+3419.18+1290.99L3422.33+1316.18C3427.79+1316.18+3434.29+1315.65+3441.85+1314.61C3449.41+1313.56+3457.28+1311.67+3465.46+1308.94C3473.65+1306.21+3481.73+1302.75+3489.71+1298.55C3497.68+1294.35+3504.61+1289.1+3510.49+1282.81C3524.76+1267.69+3534.1+1250.17+3538.51+1230.23C3542.92+1210.29+3545.12+1187.09+3545.12+1160.64Z" opacity="1" fill="#77216f"/>
<path d="M3825.33+1103.34C3825.33+1080.67+3818.52+1062.73+3804.87+1049.5C3791.23+1036.28+3770.55+1024.84+3742.84+1015.18C3731.51+1011.41+3721.54+1007.63+3712.93+1003.85C3704.33+1000.07+3696.98+995.873+3690.9+991.255C3684.81+986.638+3680.19+981.181+3677.04+974.883C3673.89+968.586+3672.32+961.239+3672.32+952.843C3672.32+938.151+3677.67+925.452+3688.38+914.747C3699.08+904.042+3714.93+898.69+3735.92+898.69C3753.55+898.69+3767.83+901.103+3778.74+905.931C3789.65+910.758+3797.63+914.852+3802.67+918.21L3814.63+893.022C3805.82+887.145+3795.12+882.317+3782.51+878.54C3769.92+874.761+3756.28+872.872+3741.58+872.872C3725.22+872.872+3710.84+875.18+3698.45+879.799C3686.07+884.416+3675.68+890.714+3667.28+898.69C3658.89+906.666+3652.59+915.692+3648.39+925.766C3644.19+935.841+3642.09+946.127+3642.09+956.622C3642.09+993.564+3669.38+1020.85+3723.96+1038.48C3747.88+1046.04+3765.72+1054.75+3777.48+1064.62C3789.24+1074.48+3795.12+1088.23+3795.12+1105.86C3795.12+1121.39+3789.03+1135.04+3776.85+1146.79C3764.68+1158.55+3745.37+1164.42+3718.91+1164.42C3703.8+1164.42+3689.74+1162.11+3676.73+1157.5C3663.71+1152.88+3652.59+1147.63+3643.35+1141.75L3632.02+1168.2C3643.35+1174.92+3656.26+1180.27+3670.75+1184.26C3685.23+1188.25+3700.44+1190.24+3716.4+1190.24C3733.61+1190.24+3748.93+1188.04+3762.37+1183.63C3775.8+1179.22+3787.24+1173.13+3796.69+1165.37C3806.13+1157.6+3813.26+1148.37+3818.1+1137.66C3822.92+1126.96+3825.33+1115.52+3825.33+1103.34Z" opacity="1" fill="#77216f"/>
</g>
</svg>
